{
  "accessors": [
    {
      "bufferView": 2,
      "componentType": 5126,
      "count": 4,
      "max": [
        -0.09638100117444992,
        -0.016697999089956284,
        0.017643000930547714
      ],
      "min": [
        -0.099542997777462,
        -0.024072999134659767,
        0.010834000073373318
      ],
      "type": "VEC3"
    },
    {
      "bufferView": 2,
      "byteOffset": 48,
      "componentType": 5126,
      "count": 4,
      "max": [
        0.8108420968055725,
        -0.19932202994823456,
        -0.3235090970993042
      ],
      "min": [
        -0.12758706510066986,
        -0.9297022223472595,
        -0.5502780675888062
      ],
      "type": "VEC3"
    },
    {
      "bufferView": 3,
      "componentType": 5126,
      "count": 4,
      "max": [
        0.6343713998794556,
        0.38282978534698486,
        0.8868751525878906,
        1.0
      ],
      "min": [
        0.39891543984413147,
        -0.4788672924041748,
        0.6068435907363892,
        1.0
      ],
      "type": "VEC4"
    },
    {
      "bufferView": 1,
      "componentType": 5126,
      "count": 4,
      "max": [
        0.8093000054359436,
        0.024560000747442245
      ],
      "min": [
        0.8015699982643127,
        0.0038999998942017555
      ],
      "type": "VEC2"
    },
    {
      "bufferView": 0,
      "componentType": 5125,
      "count": 6,
      "type": "SCALAR"
    },
    {
      "bufferView": 2,
      "byteOffset": 96,
      "componentType": 5126,
      "count": 15,
      "max": [
        -0.11221799999475479,
        0.17549100518226624,
        0.019696999341249466
      ],
      "min": [
        -0.1218930035829544,
        0.16627800464630127,
        0.015569999814033508
      ],
      "type": "VEC3"
    },
    {
      "bufferView": 2,
      "byteOffset": 276,
      "componentType": 5126,
      "count": 15,
      "max": [
        -0.09165102243423462,
        0.942412257194519,
        0.9423848986625671
      ],
      "min": [
        -0.8127443194389343,
        -0.3352610766887665,
        0.28959009051322937
      ],
      "type": "VEC3"
    },
    {
      "bufferView": 3,
      "byteOffset": 64,
      "componentType": 5126,
      "count": 15,
      "max": [
        -0.39615148305892944,
        -0.10071982443332672,
        0.046511538326740265,
        1.0
      ],
      "min": [
        -0.9948468804359436,
        -0.5892601609230042,
        -0.7301220297813416,
        1.0
      ],
      "type": "VEC4"
    },
    {
      "bufferView": 1,
      "byteOffset": 32,
      "componentType": 5126,
      "count": 15,
      "max": [
        0.06111999973654747,
        0.033799998462200165
      ],
      "min": [
        0.039090000092983246,
        0.0038999998942017555
      ],
      "type": "VEC2"
    },
    {
      "bufferView": 0,
      "byteOffset": 24,
      "componentType": 5125,
      "count": 48,
      "type": "SCALAR"
    },
    {
      "bufferView": 2,
      "byteOffset": 456,
      "componentType": 5126,
      "count": 338,
      "max": [
        -0.06851799786090851,
        -0.1558160036802292,
        0.04530499875545502
      ],
      "min": [
        -0.11227600276470184,
        -0.21698899567127228,
        0.003194000106304884
      ],
      "type": "VEC3"
    },
    {
      "bufferView": 2,
      "byteOffset": 4512,
      "componentType": 5126,
      "count": 338,
      "max": [
        0.9965136647224426,
        0.6915465593338013,
        0.9914816617965698
      ],
      "min": [
        -0.9990036487579346,
        -0.8188198208808899,
        -0.9977380037307739
      ],
      "type": "VEC3"
    },
    {
      "bufferView": 3,
      "byteOffset": 304,
      "componentType": 5126,
      "count": 338,
      "max": [
        0.9892550706863403,
        0.6109007596969604,
        0.9745339751243591,
        1.0
      ],
      "min": [
        -0.9979474544525146,
        -0.38233622908592224,
        -0.9882007837295532,
        1.0
      ],
      "type": "VEC4"
    },
    {
      "bufferView": 1,
      "byteOffset": 152,
      "componentType": 5126,
      "count": 338,
      "max": [
        0.49298998713493347,
        0.9726300239562988
      ],
      "min": [
        0.19550000131130219,
        0.7965899705886841
      ],
      "type": "VEC2"
    },
    {
      "bufferView": 0,
      "byteOffset": 216,
      "componentType": 5125,
      "count": 1800,
      "type": "SCALAR"
    },
    {
      "bufferView": 2,
      "byteOffset": 8568,
      "componentType": 5126,
      "count": 76,
      "max": [
        -0.11783400177955627,
        0.1960880011320114,
        0.04672800004482269
      ],
      "min": [
        -0.12292700260877609,
        0.15809300541877747,
        0.009774000383913517
      ],
      "type": "VEC3"
    },
    {
      "bufferView": 2,
      "byteOffset": 9480,
      "componentType": 5126,
      "count": 76,
      "max": [
        -0.44893592596054077,
        0.8825986981391907,
        0.7900438904762268
      ],
      "min": [
        -0.9954281449317932,
        -0.8240610957145691,
        -0.7632552981376648
      ],
      "type": "VEC3"
    },
    {
      "bufferView": 3,
      "byteOffset": 5712,
      "componentType": 5126,
      "count": 76,
      "max": [
        0.7849137783050537,
        0.2300003468990326,
        -0.5307891964912415,
        1.0
      ],
      "min": [
        -0.7577148079872131,
        -0.6036922931671143,
        -0.9592548608779907,
        1.0
      ],
      "type": "VEC4"
    },
    {
      "bufferView": 1,
      "byteOffset": 2856,
      "componentType": 5126,
      "count": 76,
      "max": [
        0.7121300101280212,
        0.6202300190925598
      ],
      "min": [
        0.6295199990272522,
        0.5329800248146057
      ],
      "type": "VEC2"
    },
    {
      "bufferView": 0,
      "byteOffset": 7416,
      "componentType": 5125,
      "count": 342,
      "type": "SCALAR"
    },
    {
      "bufferView": 2,
      "byteOffset": 10392,
      "componentType": 5126,
      "count": 104,
      "max": [
        -0.07327300310134888,
        -0.028203999623656273,
        0.03831300139427185
      ],
      "min": [
        -0.10120099782943726,
        -0.15684999525547028,
        0.012935999780893326
      ],
      "type": "VEC3"
    },
    {
      "bufferView": 2,
      "byteOffset": 11640,
      "componentType": 5126,
      "count": 104,
      "max": [
        0.9966971278190613,
        0.1465200036764145,
        0.9999086260795593
      ],
      "min": [
        -0.9979006052017212,
        -0.07168998569250107,
        -0.9998846054077148
      ],
      "type": "VEC3"
    },
    {
      "bufferView": 3,
      "byteOffset": 6928,
      "componentType": 5126,
      "count": 104,
      "max": [
        0.9998230934143066,
        0.0833265483379364,
        0.9997846484184265,
        1.0
      ],
      "min": [
        -0.9976163506507874,
        0.014777890406548977,
        -0.9975689649581909,
        1.0
      ],
      "type": "VEC4"
    },
    {
      "bufferView": 1,
      "byteOffset": 3464,
      "componentType": 5126,
      "count": 104,
      "max": [
        0.1900700032711029,
        0.9960899949073792
      ],
      "min": [
        0.0038999998942017555,
        0.7012199759483337
      ],
      "type": "VEC2"
    },
    {
      "bufferView": 0,
      "byteOffset": 8784,
      "componentType": 5125,
      "count": 450,
      "type": "SCALAR"
    },
    {
      "bufferView": 2,
      "byteOffset": 12888,
      "componentType": 5126,
      "count": 48,
      "max": [
        -0.07137999683618546,
        0.19631700217723846,
        -0.17808499932289124
      ],
      "min": [
        -0.09284199774265289,
        0.17769399285316467,
        -0.18611499667167664
      ],
      "type": "VEC3"
    },
    {
      "bufferView": 2,
      "byteOffset": 13464,
      "componentType": 5126,
      "count": 48,
      "max": [
        0.9150777459144592,
        0.9992773532867432,
        0.17451699078083038
      ],
      "min": [
        -0.9202873706817627,
        -0.9565294981002808,
        -0.985564649105072
      ],
      "type": "VEC3"
    },
    {
      "bufferView": 3,
      "byteOffset": 8592,
      "componentType": 5126,
      "count": 48,
      "max": [
        0.04240177199244499,
        0.8716500401496887,
        0.991856038570404,
        1.0
      ],
      "min": [
        -0.7288002967834473,
        -0.19094449281692505,
        -0.9472299814224243,
        1.0
      ],
      "type": "VEC4"
    },
    {
      "bufferView": 1,
      "byteOffset": 4296,
      "componentType": 5126,
      "count": 48,
      "max": [
        0.6955000162124634,
        0.06109999865293503
      ],
      "min": [
        0.6373400092124939,
        0.0038999998942017555
      ],
      "type": "VEC2"
    },
    {
      "bufferView": 0,
      "byteOffset": 10584,
      "componentType": 5125,
      "count": 237,
      "type": "SCALAR"
    },
    {
      "bufferView": 2,
      "byteOffset": 14040,
      "componentType": 5126,
      "count": 82,
      "max": [
        -0.0814180001616478,
        0.08877400308847427,
        0.0004450000124052167
      ],
      "min": [
        -0.08533699810504913,
        0.06490900367498398,
        -0.02234799973666668
      ],
      "type": "VEC3"
    },
    {
      "bufferView": 2,
      "byteOffset": 15024,
      "componentType": 5126,
      "count": 82,
      "max": [
        0.997701108455658,
        0.8126041889190674,
        0.8629390001296997
      ],
      "min": [
        0.331712007522583,
        -0.9327172636985779,
        -0.8467223048210144
      ],
      "type": "VEC3"
    },
    {
      "bufferView": 3,
      "byteOffset": 9360,
      "componentType": 5126,
      "count": 82,
      "max": [
        0.8697435259819031,
        -0.15521368384361267,
        0.8522936701774597,
        1.0
      ],
      "min": [
        -0.94273442029953,
        -0.731523334980011,
        0.25731387734413147,
        1.0
      ],
      "type": "VEC4"
    },
    {
      "bufferView": 1,
      "byteOffset": 4680,
      "componentType": 5126,
      "count": 82,
      "max": [
        0.3503299951553345,
        0.06988000124692917
      ],
      "min": [
        0.3167099952697754,
        0.0038999998942017555
      ],
      "type": "VEC2"
    },
    {
      "bufferView": 0,
      "byteOffset": 11532,
      "componentType": 5125,
      "count": 408,
      "type": "SCALAR"
    },
    {
      "bufferView": 2,
      "byteOffset": 16008,
      "componentType": 5126,
      "count": 130,
      "max": [
        -0.08337199687957764,
        0.090208999812603,
        0.0016270000487565994
      ],
      "min": [
        -0.09518600255250931,
        0.06390500068664551,
        -0.023705000057816505
      ],
      "type": "VEC3"
    },
    {
      "bufferView": 2,
      "byteOffset": 17568,
      "componentType": 5126,
      "count": 130,
      "max": [
        0.8973739743232727,
        0.9789146184921265,
        0.9960349798202515
      ],
      "min": [
        -0.14610092341899872,
        -0.9928698539733887,
        -0.9784626364707947
      ],
      "type": "VEC3"
    },
    {
      "bufferView": 3,
      "byteOffset": 10672,
      "componentType": 5126,
      "count": 130,
      "max": [
        0.9090587496757507,
        0.2755516767501831,
        0.8058704137802124,
        1.0
      ],
      "min": [
        -0.9928353428840637,
        -0.8547323942184448,
        -0.32678017020225525,
        1.0
      ],
      "type": "VEC4"
    },
    {
      "bufferView": 1,
      "byteOffset": 5336,
      "componentType": 5126,
      "count": 130,
      "max": [
        0.3899199962615967,
        0.7600399851799011
      ],
      "min": [
        0.3167099952697754,
        0.670930027961731
      ],
      "type": "VEC2"
    },
    {
      "bufferView": 0,
      "byteOffset": 13164,
      "componentType": 5125,
      "count": 624,
      "type": "SCALAR"
    },
    {
      "bufferView": 2,
      "byteOffset": 19128,
      "componentType": 5126,
      "count": 323,
      "max": [
        -0.09204400330781937,
        0.10536400228738785,
        0.01669500023126602
      ],
      "min": [
        -0.09867999702692032,
        -0.019208999350667,
        -0.03707899898290634
      ],
      "type": "VEC3"
    },
    {
      "bufferView": 2,
      "byteOffset": 23004,
      "componentType": 5126,
      "count": 323,
      "max": [
        0.9999876618385315,
        0.9462999105453491,
        0.8934641480445862
      ],
      "min": [
        -0.04187900945544243,
        -0.9964948892593384,
        -0.9924971461296082
      ],
      "type": "VEC3"
    },
    {
      "bufferView": 3,
      "byteOffset": 12752,
      "componentType": 5126,
      "count": 323,
      "max": [
        0.9914735555648804,
        0.5528734922409058,
        0.999954104423523,
        1.0
      ],
      "min": [
        -0.9046607613563538,
        -0.6170336008071899,
        0.11143599450588226,
        -1.0
      ],
      "type": "VEC4"
    },
    {
      "bufferView": 1,
      "byteOffset": 6376,
      "componentType": 5126,
      "count": 323,
      "max": [
        0.9915800094604492,
        0.666159987449646
      ],
      "min": [
        0.8719499707221985,
        0.36456000804901123
      ],
      "type": "VEC2"
    },
    {
      "bufferView": 0,
      "byteOffset": 15660,
      "componentType": 5125,
      "count": 1536,
      "type": "SCALAR"
    },
    {
      "bufferView": 2,
      "byteOffset": 26880,
      "componentType": 5126,
      "count": 79,
      "max": [
        -0.09434299916028976,
        0.05814500153064728,
        -0.017854999750852585
      ],
      "min": [
        -0.10776499658823013,
        0.033886998891830444,
        -0.03172000125050545
      ],
      "type": "VEC3"
    },
    {
      "bufferView": 2,
      "byteOffset": 27828,
      "componentType": 5126,
      "count": 79,
      "max": [
        0.9685282111167908,
        0.9505296349525452,
        0.9896100163459778
      ],
      "min": [
        -0.05622200667858124,
        -0.7995313405990601,
        -0.9985877871513367
      ],
      "type": "VEC3"
    },
    {
      "bufferView": 3,
      "byteOffset": 17920,
      "componentType": 5126,
      "count": 79,
      "max": [
        0.9526941180229187,
        -0.2817605137825012,
        0.3146628439426422,
        1.0
      ],
      "min": [
        -0.8196110725402832,
        -0.998340368270874,
        -0.35987454652786255,
        1.0
      ],
      "type": "VEC4"
    },
    {
      "bufferView": 1,
      "byteOffset": 8960,
      "componentType": 5126,
      "count": 79,
      "max": [
        0.6272600293159485,
        0.06541000306606293
      ],
      "min": [
        0.5630499720573425,
        0.0038999998942017555
      ],
      "type": "VEC2"
    },
    {
      "bufferView": 0,
      "byteOffset": 21804,
      "componentType": 5125,
      "count": 381,
      "type": "SCALAR"
    },
    {
      "bufferView": 2,
      "byteOffset": 28776,
      "componentType": 5126,
      "count": 37,
      "max": [
        -0.10553800314664841,
        0.05191199854016304,
        -0.01854100078344345
      ],
      "min": [
        -0.10817000269889832,
        0.039976999163627625,
        -0.027888000011444092
      ],
      "type": "VEC3"
    },
    {
      "bufferView": 2,
      "byteOffset": 29220,
      "componentType": 5126,
      "count": 37,
      "max": [
        0.999158501625061,
        0.8962872624397278,
        0.8167703151702881
      ],
      "min": [
        0.3202049732208252,
        -0.7422440648078918,
        -0.915386438369751
      ],
      "type": "VEC3"
    },
    {
      "bufferView": 3,
      "byteOffset": 19184,
      "componentType": 5126,
      "count": 37,
      "max": [
        0.8894364237785339,
        -0.42288830876350403,
        0.33981913328170776,
        1.0
      ],
      "min": [
        -0.7779924273490906,
        -0.9907718300819397,
        -0.16935260593891144,
        1.0
      ],
      "type": "VEC4"
    },
    {
      "bufferView": 1,
      "byteOffset": 9592,
      "componentType": 5126,
      "count": 37,
      "max": [
        0.25812000036239624,
        0.24446000158786774
      ],
      "min": [
        0.23069000244140625,
        0.22147999703884125
      ],
      "type": "VEC2"
    },
    {
      "bufferView": 0,
      "byteOffset": 23328,
      "componentType": 5125,
      "count": 168,
      "type": "SCALAR"
    },
    {
      "bufferView": 2,
      "byteOffset": 29664,
      "componentType": 5126,
      "count": 213,
      "max": [
        -0.11395599693059921,
        0.05048099905252457,
        0.010672000236809254
      ],
      "min": [
        -0.13477900624275208,
        -0.017351999878883362,
        -0.03237500041723251
      ],
      "type": "VEC3"
    },
    {
      "bufferView": 2,
      "byteOffset": 32220,
      "componentType": 5126,
      "count": 213,
      "max": [
        0.10501201450824738,
        0.09281400591135025,
        -0.1228870153427124
      ],
      "min": [
        -0.9719391465187073,
        -0.8984209895133972,
        -0.9996147751808167
      ],
      "type": "VEC3"
    },
    {
      "bufferView": 3,
      "byteOffset": 19776,
      "componentType": 5126,
      "count": 213,
      "max": [
        0.9998691082000732,
        0.0863618403673172,
        0.10525152832269669,
        1.0
      ],
      "min": [
        0.23457258939743042,
        -0.7438536286354065,
        -0.9658499360084534,
        1.0
      ],
      "type": "VEC4"
    },
    {
      "bufferView": 1,
      "byteOffset": 9888,
      "componentType": 5126,
      "count": 213,
      "max": [
        0.17523999512195587,
        0.602940022945404
      ],
      "min": [
        0.12511999905109406,
        0.40985000133514404
      ],
      "type": "VEC2"
    },
    {
      "bufferView": 0,
      "byteOffset": 24000,
      "componentType": 5125,
      "count": 1080,
      "type": "SCALAR"
    },
    {
      "bufferView": 2,
      "byteOffset": 34776,
      "componentType": 5126,
      "count": 34,
      "max": [
        -0.12286800146102905,
        0.052726998925209045,
        -0.007534999866038561
      ],
      "min": [
        -0.13474999368190765,
        0.045308999717235565,
        -0.01929200068116188
      ],
      "type": "VEC3"
    },
    {
      "bufferView": 2,
      "byteOffset": 35184,
      "componentType": 5126,
      "count": 34,
      "max": [
        -0.0893920287489891,
        -0.20135407149791718,
        0.957343339920044
      ],
      "min": [
        -0.9616121053695679,
        -0.9565681219100952,
        -0.7207960486412048
      ],
      "type": "VEC3"
    },
    {
      "bufferView": 3,
      "byteOffset": 23184,
      "componentType": 5126,
      "count": 34,
      "max": [
        0.0467078723013401,
        0.8217517733573914,
        -0.24150350689888,
        1.0
      ],
      "min": [
        -0.7824559211730957,
        -0.5910260081291199,
        -0.9261366724967957,
        1.0
      ],
      "type": "VEC4"
    },
    {
      "bufferView": 1,
      "byteOffset": 11592,
      "componentType": 5126,
      "count": 34,
      "max": [
        0.9173700213432312,
        0.37362998723983765
      ],
      "min": [
        0.883679986000061,
        0.33963000774383545
      ],
      "type": "VEC2"
    },
    {
      "bufferView": 0,
      "byteOffset": 28320,
      "componentType": 5125,
      "count": 144,
      "type": "SCALAR"
    },
    {
      "bufferView": 2,
      "byteOffset": 35592,
      "componentType": 5126,
      "count": 110,
      "max": [
        -0.12394700199365616,
        0.029544999822974205,
        0.0086899995803833
      ],
      "min": [
        -0.14611700177192688,
        0.006533000152558088,
        -0.013016999699175358
      ],
      "type": "VEC3"
    },
    {
      "bufferView": 2,
      "byteOffset": 36912,
      "componentType": 5126,
      "count": 110,
      "max": [
        0.06748802959918976,
        0.9986863732337952,
        0.969701886177063
      ],
      "min": [
        -0.8486279845237732,
        -0.9590937495231628,
        -0.9773954749107361
      ],
      "type": "VEC3"
    },
    {
      "bufferView": 3,
      "byteOffset": 23728,
      "componentType": 5126,
      "count": 110,
      "max": [
        0.999157190322876,
        0.9071969985961914,
        0.9282062649726868,
        1.0
      ],
      "min": [
        -0.99869304895401,
        -0.3362215459346771,
        -0.25082147121429443,
        1.0
      ],
      "type": "VEC4"
    },
    {
      "bufferView": 1,
      "byteOffset": 11864,
      "componentType": 5126,
      "count": 110,
      "max": [
        0.566510021686554,
        0.8745599985122681
      ],
      "min": [
        0.512220025062561,
        0.776889979839325
      ],
      "type": "VEC2"
    },
    {
      "bufferView": 0,
      "byteOffset": 28896,
      "componentType": 5125,
      "count": 498,
      "type": "SCALAR"
    },
    {
      "bufferView": 2,
      "byteOffset": 38232,
      "componentType": 5126,
      "count": 65,
      "max": [
        -0.1434839963912964,
        0.0276699997484684,
        0.006965999957174063
      ],
      "min": [
        -0.14806100726127625,
        0.00936300028115511,
        -0.01135099958628416
      ],
      "type": "VEC3"
    },
    {
      "bufferView": 2,
      "byteOffset": 39012,
      "componentType": 5126,
      "count": 65,
      "max": [
        -0.19218502938747406,
        0.965886116027832,
        0.8792427778244019
      ],
      "min": [
        -0.9969512224197388,
        -0.8551537990570068,
        -0.8979807496070862
      ],
      "type": "VEC3"
    },
    {
      "bufferView": 3,
      "byteOffset": 25488,
      "componentType": 5126,
      "count": 65,
      "max": [
        0.9711305499076843,
        0.7776848673820496,
        0.8534961342811584,
        1.0
      ],
      "min": [
        -0.9219622015953064,
        -0.04758543521165848,
        0.18783898651599884,
        1.0
      ],
      "type": "VEC4"
    },
    {
      "bufferView": 1,
      "byteOffset": 12744,
      "componentType": 5126,
      "count": 65,
      "max": [
        0.9862899780273438,
        0.19017000496387482
      ],
      "min": [
        0.9579700231552124,
        0.13826000690460205
      ],
      "type": "VEC2"
    },
    {
      "bufferView": 0,
      "byteOffset": 30888,
      "componentType": 5125,
      "count": 318,
      "type": "SCALAR"
    },
    {
      "bufferView": 2,
      "byteOffset": 39792,
      "componentType": 5126,
      "count": 203,
      "max": [
        -0.11403699964284897,
        0.10232800245285034,
        0.03670100122690201
      ],
      "min": [
        -0.133760005235672,
        0.04955499991774559,
        -0.03375300019979477
      ],
      "type": "VEC3"
    },
    {
      "bufferView": 2,
      "byteOffset": 42228,
      "componentType": 5126,
      "count": 203,
      "max": [
        0.14788293838500977,
        0.9999663829803467,
        0.07614296674728394
      ],
      "min": [
        -0.9499921202659607,
        -0.7064899206161499,
        -0.9824020266532898
      ],
      "type": "VEC3"
    },
    {
      "bufferView": 3,
      "byteOffset": 26528,
      "componentType": 5126,
      "count": 203,
      "max": [
        -0.3091205954551697,
        0.08068129420280457,
        0.8151288628578186,
        1.0
      ],
      "min": [
        -0.9973276853561401,
        -0.9312703013420105,
        -0.16755838692188263,
        1.0
      ],
      "type": "VEC4"
    },
    {
      "bufferView": 1,
      "byteOffset": 13264,
      "componentType": 5126,
      "count": 203,
      "max": [
        0.174919992685318,
        0.2740899920463562
      ],
      "min": [
        0.11729999631643295,
        0.055399999022483826
      ],
      "type": "VEC2"
    },
    {
      "bufferView": 0,
      "byteOffset": 32160,
      "componentType": 5125,
      "count": 1008,
      "type": "SCALAR"
    },
    {
      "bufferView": 2,
      "byteOffset": 44664,
      "componentType": 5126,
      "count": 117,
      "max": [
        -0.12270800024271011,
        0.051688000559806824,
        -0.0044479998759925365
      ],
      "min": [
        -0.13646399974822998,
        0.023545000702142715,
        -0.019675999879837036
      ],
      "type": "VEC3"
    },
    {
      "bufferView": 2,
      "byteOffset": 46068,
      "componentType": 5126,
      "count": 117,
      "max": [
        0.07128896564245224,
        0.9694593548774719,
        0.9990267753601074
      ],
      "min": [
        -0.9995445013046265,
        -0.7653031349182129,
        -0.9993804693222046
      ],
      "type": "VEC3"
    },
    {
      "bufferView": 3,
      "byteOffset": 29776,
      "componentType": 5126,
      "count": 117,
      "max": [
        0.8309938907623291,
        0.464918315410614,
        0.9726216197013855,
        1.0
      ],
      "min": [
        -0.9150636792182922,
        -0.6998163461685181,
        -0.24686743319034576,
        1.0
      ],
      "type": "VEC4"
    },
    {
      "bufferView": 1,
      "byteOffset": 14888,
      "componentType": 5126,
      "count": 117,
      "max": [
        0.091839998960495,
        0.4004800021648407
      ],
      "min": [
        0.0038999998942017555,
        0.3077999949455261
      ],
      "type": "VEC2"
    },
    {
      "bufferView": 0,
      "byteOffset": 36192,
      "componentType": 5125,
      "count": 573,
      "type": "SCALAR"
    },
    {
      "bufferView": 2,
      "byteOffset": 47472,
      "componentType": 5126,
      "count": 115,
      "max": [
        -0.07064200192689896,
        -0.21410399675369263,
        0.042869001626968384
      ],
      "min": [
        -0.10966400057077408,
        -0.21741299331188202,
        0.0045380000956356525
      ],
      "type": "VEC3"
    },
    {
      "bufferView": 2,
      "byteOffset": 48852,
      "componentType": 5126,
      "count": 115,
      "max": [
        0.6792047619819641,
        -0.7049457430839539,
        0.6378270387649536
      ],
      "min": [
        -0.6818910241127014,
        -0.9991132616996765,
        -0.6973917484283447
      ],
      "type": "VEC3"
    },
    {
      "bufferView": 3,
      "byteOffset": 31648,
      "componentType": 5126,
      "count": 115,
      "max": [
        -0.6798630356788635,
        0.6893307566642761,
        0.4511150121688843,
        1.0
      ],
      "min": [
        -0.9561039805412292,
        -0.6449806690216064,
        0.09359108656644821,
        1.0
      ],
      "type": "VEC4"
    },
    {
      "bufferView": 1,
      "byteOffset": 15824,
      "componentType": 5126,
      "count": 115,
      "max": [
        0.3376300036907196,
        0.5593600273132324
      ],
      "min": [
        0.2502399981021881,
        0.4722900092601776
      ],
      "type": "VEC2"
    },
    {
      "bufferView": 0,
      "byteOffset": 38484,
      "componentType": 5125,
      "count": 609,
      "type": "SCALAR"
    },
    {
      "bufferView": 2,
      "byteOffset": 50232,
      "componentType": 5126,
      "count": 54,
      "max": [
        -0.08407100290060043,
        0.02077299915254116,
        0.07378599792718887
      ],
      "min": [
        -0.08776099979877472,
        -0.0029949999880045652,
        0.05327500030398369
      ],
      "type": "VEC3"
    },
    {
      "bufferView": 2,
      "byteOffset": 50880,
      "componentType": 5126,
      "count": 54,
      "max": [
        0.9995914697647095,
        0.9335311055183411,
        0.8161608576774597
      ],
      "min": [
        0.2187509387731552,
        -0.8073148131370544,
        -0.8201233148574829
      ],
      "type": "VEC3"
    },
    {
      "bufferView": 3,
      "byteOffset": 33488,
      "componentType": 5126,
      "count": 54,
      "max": [
        0.9659234285354614,
        -0.04651767387986183,
        0.8625630140304565,
        1.0
      ],
      "min": [
        -0.8085445165634155,
        -0.8612714409828186,
        0.11315113306045532,
        1.0
      ],
      "type": "VEC4"
    },
    {
      "bufferView": 1,
      "byteOffset": 16744,
      "componentType": 5126,
      "count": 54,
      "max": [
        0.9872699975967407,
        0.06566999852657318
      ],
      "min": [
        0.9579700231552124,
        0.0038999998942017555
      ],
      "type": "VEC2"
    },
    {
      "bufferView": 0,
      "byteOffset": 40920,
      "componentType": 5125,
      "count": 243,
      "type": "SCALAR"
    },
    {
      "bufferView": 2,
      "byteOffset": 51528,
      "componentType": 5126,
      "count": 218,
      "max": [
        -0.09215600043535233,
        0.10722699761390686,
        0.08993600308895111
      ],
      "min": [
        -0.11792699992656708,
        -0.027490999549627304,
        -0.037661999464035034
      ],
      "type": "VEC3"
    },
    {
      "bufferView": 2,
      "byteOffset": 54144,
      "componentType": 5126,
      "count": 218,
      "max": [
        0.3118009865283966,
        0.9981746673583984,
        0.98920738697052
      ],
      "min": [
        -0.6527859568595886,
        -0.9964948892593384,
        -0.9924971461296082
      ],
      "type": "VEC3"
    },
    {
      "bufferView": 3,
      "byteOffset": 34352,
      "componentType": 5126,
      "count": 218,
      "max": [
        0.9938759803771973,
        0.759960949420929,
        0.4105464518070221,
        1.0
      ],
      "min": [
        -0.9913234710693359,
        -0.7378547787666321,
        -0.9952764511108398,
        1.0
      ],
      "type": "VEC4"
    },
    {
      "bufferView": 1,
      "byteOffset": 17176,
      "componentType": 5126,
      "count": 218,
      "max": [
        0.34630000591278076,
        0.3602699935436249
      ],
      "min": [
        0.0038999998942017555,
        0.0038999998942017555
      ],
      "type": "VEC2"
    },
    {
      "bufferView": 0,
      "byteOffset": 41892,
      "componentType": 5125,
      "count": 654,
      "type": "SCALAR"
    },
    {
      "bufferView": 2,
      "byteOffset": 56760,
      "componentType": 5126,
      "count": 36,
      "max": [
        -0.0850209966301918,
        0.018370000645518303,
        0.07815399765968323
      ],
      "min": [
        -0.09522199630737305,
        -0.005739999935030937,
        0.05531200021505356
      ],
      "type": "VEC3"
    },
    {
      "bufferView": 2,
      "byteOffset": 57192,
      "componentType": 5126,
      "count": 36,
      "max": [
        0.7810711860656738,
        0.49136418104171753,
        0.8816329836845398
      ],
      "min": [
        0.25359809398651123,
        -0.9119472503662109,
        -0.1736670434474945
      ],
      "type": "VEC3"
    },
    {
      "bufferView": 3,
      "byteOffset": 37840,
      "componentType": 5126,
      "count": 36,
      "max": [
        -0.5117058157920837,
        -0.13100343942642212,
        0.8491144180297852,
        1.0
      ],
      "min": [
        -0.9253174662590027,
        -0.74281245470047,
        0.2960115075111389,
        1.0
      ],
      "type": "VEC4"
    },
    {
      "bufferView": 1,
      "byteOffset": 18920,
      "componentType": 5126,
      "count": 36,
      "max": [
        0.030869999900460243,
        0.07947000116109848
      ],
      "min": [
        0.0038999998942017555,
        0.0038999998942017555
      ],
      "type": "VEC2"
    },
    {
      "bufferView": 0,
      "byteOffset": 44508,
      "componentType": 5125,
      "count": 132,
      "type": "SCALAR"
    },
    {
      "bufferView": 2,
      "byteOffset": 57624,
      "componentType": 5126,
      "count": 171,
      "max": [
        -0.06820400059223175,
        0.21988900005817413,
        0.03984899818897247
      ],
      "min": [
        -0.09131000190973282,
        0.19689799845218658,
        0.01653599925339222
      ],
      "type": "VEC3"
    },
    {
      "bufferView": 2,
      "byteOffset": 59676,
      "componentType": 5126,
      "count": 171,
      "max": [
        0.9996333718299866,
        0.6401517391204834,
        0.9980319738388062
      ],
      "min": [
        -0.9991896152496338,
        -0.11926300078630447,
        -0.9992260932922363
      ],
      "type": "VEC3"
    },
    {
      "bufferView": 3,
      "byteOffset": 38416,
      "componentType": 5126,
      "count": 171,
      "max": [
        0.3283992111682892,
        -0.7669448852539063,
        0.6356044411659241,
        1.0
      ],
      "min": [
        -0.540769100189209,
        -0.9999552965164185,
        -0.5039416551589966,
        1.0
      ],
      "type": "VEC4"
    },
    {
      "bufferView": 1,
      "byteOffset": 19208,
      "componentType": 5126,
      "count": 171,
      "max": [
        0.23949000239372253,
        0.5892099738121033
      ],
      "min": [
        0.18377000093460083,
        0.414110004901886
      ],
      "type": "VEC2"
    },
    {
      "bufferView": 0,
      "byteOffset": 45036,
      "componentType": 5125,
      "count": 864,
      "type": "SCALAR"
    },
    {
      "bufferView": 2,
      "byteOffset": 61728,
      "componentType": 5126,
      "count": 303,
      "max": [
        -0.09120500087738037,
        0.10253799706697464,
        0.08946800231933594
      ],
      "min": [
        -0.10257499665021896,
        -0.024941999465227127,
        0.03402300179004669
      ],
      "type": "VEC3"
    },
    {
      "bufferView": 2,
      "byteOffset": 65364,
      "componentType": 5126,
      "count": 303,
      "max": [
        0.9998663663864136,
        0.9249516129493713,
        0.98920738697052
      ],
      "min": [
        -0.020733999088406563,
        -0.9413570165634155,
        -0.8361616730690002
      ],
      "type": "VEC3"
    },
    {
      "bufferView": 3,
      "byteOffset": 41152,
      "componentType": 5126,
      "count": 303,
      "max": [
        0.9920436143875122,
        0.5703291296958923,
        -0.1071704551577568,
        1.0
      ],
      "min": [
        -0.8303257822990417,
        -0.6805364489555359,
        -0.9999961853027344,
        1.0
      ],
      "type": "VEC4"
    },
    {
      "bufferView": 1,
      "byteOffset": 20576,
      "componentType": 5126,
      "count": 303,
      "max": [
        0.7000399827957153,
        0.9851899743080139
      ],
      "min": [
        0.5747799873352051,
        0.6912400126457214
      ],
      "type": "VEC2"
    },
    {
      "bufferView": 0,
      "byteOffset": 48492,
      "componentType": 5125,
      "count": 1452,
      "type": "SCALAR"
    },
    {
      "bufferView": 2,
      "byteOffset": 69000,
      "componentType": 5126,
      "count": 52,
      "max": [
        -0.06900899857282639,
        0.22234000265598297,
        0.03855599835515022
      ],
      "min": [
        -0.08924300223588943,
        0.21830500662326813,
        0.01823199912905693
      ],
      "type": "VEC3"
    },
    {
      "bufferView": 2,
      "byteOffset": 69624,
      "componentType": 5126,
      "count": 52,
      "max": [
        0.9689154624938965,
        0.9989240169525146,
        0.879601776599884
      ],
      "min": [
        -0.9066654443740845,
        0.24367612600326538,
        -0.9439918994903564
      ],
      "type": "VEC3"
    },
    {
      "bufferView": 3,
      "byteOffset": 46000,
      "componentType": 5126,
      "count": 52,
      "max": [
        0.10540174692869186,
        0.938454270362854,
        0.9722105264663696,
        1.0
      ],
      "min": [
        -0.5067991614341736,
        -0.8015392422676086,
        0.3186352252960205,
        1.0
      ],
      "type": "VEC4"
    },
    {
      "bufferView": 1,
      "byteOffset": 23000,
      "componentType": 5126,
      "count": 52,
      "max": [
        0.33719998598098755,
        0.3824099898338318
      ],
      "min": [
        0.2815200090408325,
        0.3260299861431122
      ],
      "type": "VEC2"
    },
    {
      "bufferView": 0,
      "byteOffset": 54300,
      "componentType": 5125,
      "count": 252,
      "type": "SCALAR"
    },
    {
      "bufferView": 2,
      "byteOffset": 70248,
      "componentType": 5126,
      "count": 71,
      "max": [
        -0.09204400330781937,
        0.07187899947166443,
        0.015963999554514885
      ],
      "min": [
        -0.10594400018453598,
        0.04195300117135048,
        -0.010448000393807888
      ],
      "type": "VEC3"
    },
    {
      "bufferView": 2,
      "byteOffset": 71100,
      "componentType": 5126,
      "count": 71,
      "max": [
        0.9813097715377808,
        -0.042399000376462936,
        0.8125098943710327
      ],
      "min": [
        0.1874449998140335,
        -0.9772520065307617,
        -0.71840500831604
      ],
      "type": "VEC3"
    },
    {
      "bufferView": 3,
      "byteOffset": 46832,
      "componentType": 5126,
      "count": 71,
      "max": [
        0.3796098232269287,
        -0.026358816772699356,
        0.9370394945144653,
        1.0
      ],
      "min": [
        -0.8814966082572937,
        -0.8331285119056702,
        0.37601691484451294,
        1.0
      ],
      "type": "VEC4"
    },
    {
      "bufferView": 1,
      "byteOffset": 23416,
      "componentType": 5126,
      "count": 71,
      "max": [
        0.11168999969959259,
        0.18922999501228333
      ],
      "min": [
        0.06645999848842621,
        0.09662999957799911
      ],
      "type": "VEC2"
    },
    {
      "bufferView": 0,
      "byteOffset": 55308,
      "componentType": 5125,
      "count": 324,
      "type": "SCALAR"
    },
    {
      "bufferView": 2,
      "byteOffset": 71952,
      "componentType": 5126,
      "count": 724,
      "max": [
        -0.06833499670028687,
        0.16445200145244598,
        0.043230000883340836
      ],
      "min": [
        -0.10266999900341034,
        -0.028521999716758728,
        0.012105000205338001
      ],
      "type": "VEC3"
    },
    {
      "bufferView": 2,
      "byteOffset": 80640,
      "componentType": 5126,
      "count": 724,
      "max": [
        0.999946653842926,
        0.9981746673583984,
        0.9999308586120605
      ],
      "min": [
        -0.99931401014328,
        -0.981528639793396,
        -0.9999290108680725
      ],
      "type": "VEC3"
    },
    {
      "bufferView": 3,
      "byteOffset": 47968,
      "componentType": 5126,
      "count": 724,
      "max": [
        0.9999852776527405,
        0.7068831920623779,
        0.9999141693115234,
        1.0
      ],
      "min": [
        -0.999986469745636,
        -0.7766353487968445,
        -0.9996697902679443,
        1.0
      ],
      "type": "VEC4"
    },
    {
      "bufferView": 1,
      "byteOffset": 23984,
      "componentType": 5126,
      "count": 724,
      "max": [
        0.5527799725532532,
        0.46650999784469604
      ],
      "min": [
        0.34408000111579895,
        0.004530000034719706
      ],
      "type": "VEC2"
    },
    {
      "bufferView": 0,
      "byteOffset": 56604,
      "componentType": 5125,
      "count": 3897,
      "type": "SCALAR"
    },
    {
      "bufferView": 2,
      "byteOffset": 89328,
      "componentType": 5126,
      "count": 512,
      "max": [
        -0.0689769983291626,
        0.19719700515270233,
        0.019169000908732414
      ],
      "min": [
        -0.09345600008964539,
        0.164109006524086,
        -0.17960399389266968
      ],
      "type": "VEC3"
    },
    {
      "bufferView": 2,
      "byteOffset": 95472,
      "componentType": 5126,
      "count": 512,
      "max": [
        0.9986428618431091,
        0.9995224475860596,
        0.23882797360420227
      ],
      "min": [
        -0.9998261332511902,
        -0.9994644522666931,
        -0.9199938774108887
      ],
      "type": "VEC3"
    },
    {
      "bufferView": 3,
      "byteOffset": 59552,
      "componentType": 5126,
      "count": 512,
      "max": [
        0.9999997019767761,
        0.9943571090698242,
        0.5615936517715454,
        1.0
      ],
      "min": [
        -0.9994588494300842,
        -0.9997897148132324,
        -0.5057603716850281,
        1.0
      ],
      "type": "VEC4"
    },
    {
      "bufferView": 1,
      "byteOffset": 29776,
      "componentType": 5126,
      "count": 512,
      "max": [
        0.7174100279808044,
        0.5283399820327759
      ],
      "min": [
        0.5474100112915039,
        0.07395999878644943
      ],
      "type": "VEC2"
    },
    {
      "bufferView": 0,
      "byteOffset": 72192,
      "componentType": 5125,
      "count": 2763,
      "type": "SCALAR"
    },
    {
      "bufferView": 2,
      "byteOffset": 101616,
      "componentType": 5126,
      "count": 50,
      "max": [
        -0.0665849968791008,
        0.19429300725460052,
        0.24209600687026978
      ],
      "min": [
        -0.08931799978017807,
        0.17303699254989624,
        0.2301979959011078
      ],
      "type": "VEC3"
    },
    {
      "bufferView": 2,
      "byteOffset": 102216,
      "componentType": 5126,
      "count": 50,
      "max": [
        0.9912897348403931,
        0.9913374781608582,
        0.9573131203651428
      ],
      "min": [
        -0.9899462461471558,
        -0.970695972442627,
        -0.05134200677275658
      ],
      "type": "VEC3"
    },
    {
      "bufferView": 3,
      "byteOffset": 67744,
      "componentType": 5126,
      "count": 50,
      "max": [
        0.34070032835006714,
        -0.10781346261501312,
        0.9941062331199646,
        1.0
      ],
      "min": [
        -0.46040838956832886,
        -0.998964786529541,
        -0.9706183075904846,
        1.0
      ],
      "type": "VEC4"
    },
    {
      "bufferView": 1,
      "byteOffset": 33872,
      "componentType": 5126,
      "count": 50,
      "max": [
        0.29701000452041626,
        0.21574999392032623
      ],
      "min": [
        0.23069000244140625,
        0.1466200053691864
      ],
      "type": "VEC2"
    },
    {
      "bufferView": 0,
      "byteOffset": 83244,
      "componentType": 5125,
      "count": 252,
      "type": "SCALAR"
    },
    {
      "bufferView": 2,
      "byteOffset": 102816,
      "componentType": 5126,
      "count": 30,
      "max": [
        -0.0972990021109581,
        0.030688000842928886,
        0.08121199905872345
      ],
      "min": [
        -0.10837499797344208,
        0.017511999234557152,
        0.07629600167274475
      ],
      "type": "VEC3"
    },
    {
      "bufferView": 2,
      "byteOffset": 103176,
      "componentType": 5126,
      "count": 30,
      "max": [
        0.7434212565422058,
        0.9832843542098999,
        0.19637691974639893
      ],
      "min": [
        -0.024094004184007645,
        -0.18575099110603333,
        -0.9803951382637024
      ],
      "type": "VEC3"
    },
    {
      "bufferView": 3,
      "byteOffset": 68544,
      "componentType": 5126,
      "count": 30,
      "max": [
        0.22845202684402466,
        0.9827939867973328,
        0.9879826903343201,
        1.0
      ],
      "min": [
        -0.28143027424812317,
        -0.1035250872373581,
        -0.09374508261680603,
        1.0
      ],
      "type": "VEC4"
    },
    {
      "bufferView": 1,
      "byteOffset": 34272,
      "componentType": 5126,
      "count": 30,
      "max": [
        0.2718299925327301,
        0.12217000126838684
      ],
      "min": [
        0.23850999772548676,
        0.09702999889850616
      ],
      "type": "VEC2"
    },
    {
      "bufferView": 0,
      "byteOffset": 84252,
      "componentType": 5125,
      "count": 126,
      "type": "SCALAR"
    },
    {
      "bufferView": 2,
      "byteOffset": 103536,
      "componentType": 5126,
      "count": 35,
      "max": [
        -0.09781800210475922,
        0.039016999304294586,
        0.08121199905872345
      ],
      "min": [
        -0.10948500037193298,
        0.018616000190377235,
        0.06761500239372253
      ],
      "type": "VEC3"
    },
    {
      "bufferView": 2,
      "byteOffset": 103956,
      "componentType": 5126,
      "count": 35,
      "max": [
        0.9976139068603516,
        0.8080733418464661,
        0.8334630131721497
      ],
      "min": [
        0.36150410771369934,
        -0.8094769716262817,
        -0.9314453601837158
      ],
      "type": "VEC3"
    },
    {
      "bufferView": 3,
      "byteOffset": 69024,
      "componentType": 5126,
      "count": 35,
      "max": [
        0.8329885005950928,
        0.9120223522186279,
        0.6704657673835754,
        1.0
      ],
      "min": [
        -0.6679399013519287,
        0.4793627858161926,
        0.05292569100856781,
        1.0
      ],
      "type": "VEC4"
    },
    {
      "bufferView": 1,
      "byteOffset": 34512,
      "componentType": 5126,
      "count": 35,
      "max": [
        0.9930999875068665,
        0.2515600025653839
      ],
      "min": [
        0.942330002784729,
        0.2228900045156479
      ],
      "type": "VEC2"
    },
    {
      "bufferView": 0,
      "byteOffset": 84756,
      "componentType": 5125,
      "count": 144,
      "type": "SCALAR"
    },
    {
      "bufferView": 2,
      "byteOffset": 104376,
      "componentType": 5126,
      "count": 67,
      "max": [
        -0.08508399873971939,
        0.022182999178767204,
        0.07777900248765945
      ],
      "min": [
        -0.10884399712085724,
        -0.005739999935030937,
        0.04722899943590164
      ],
      "type": "VEC3"
    },
    {
      "bufferView": 2,
      "byteOffset": 105180,
      "componentType": 5126,
      "count": 67,
      "max": [
        0.8533918261528015,
        0.9953078627586365,
        0.9977162480354309
      ],
      "min": [
        -0.024094004184007645,
        -0.9119472503662109,
        -0.8778928518295288
      ],
      "type": "VEC3"
    },
    {
      "bufferView": 3,
      "byteOffset": 69584,
      "componentType": 5126,
      "count": 67,
      "max": [
        -0.2894253730773926,
        0.755375325679779,
        0.43650656938552856,
        1.0
      ],
      "min": [
        -0.9993458986282349,
        -0.2820701003074646,
        -0.9389362335205078,
        1.0
      ],
      "type": "VEC4"
    },
    {
      "bufferView": 1,
      "byteOffset": 34792,
      "componentType": 5126,
      "count": 67,
      "max": [
        0.9465500116348267,
        0.33507001399993896
      ],
      "min": [
        0.8875899910926819,
        0.22352999448776245
      ],
      "type": "VEC2"
    },
    {
      "bufferView": 0,
      "byteOffset": 85332,
      "componentType": 5125,
      "count": 270,
      "type": "SCALAR"
    },
    {
      "bufferView": 2,
      "byteOffset": 105984,
      "componentType": 5126,
      "count": 23,
      "max": [
        -0.09645300358533859,
        0.039016999304294586,
        0.0732709988951683
      ],
      "min": [
        -0.10930600017309189,
        0.02189899981021881,
        0.06699299812316895
      ],
      "type": "VEC3"
    },
    {
      "bufferView": 2,
      "byteOffset": 106260,
      "componentType": 5126,
      "count": 23,
      "max": [
        0.7464502453804016,
        0.6559932231903076,
        0.9977162480354309
      ],
      "min": [
        -0.056707993149757385,
        -0.8094769716262817,
        0.11173603683710098
      ],
      "type": "VEC3"
    },
    {
      "bufferView": 3,
      "byteOffset": 70656,
      "componentType": 5126,
      "count": 23,
      "max": [
        0.7521309852600098,
        -0.10980284959077835,
        0.09558717906475067,
        1.0
      ],
      "min": [
        0.26148316264152527,
        -0.6896416544914246,
        -0.9172099828720093,
        -1.0
      ],
      "type": "VEC4"
    },
    {
      "bufferView": 1,
      "byteOffset": 35328,
      "componentType": 5126,
      "count": 23,
      "max": [
        0.9897099733352661,
        0.30094000697135925
      ],
      "min": [
        0.9540600180625916,
        0.2575399875640869
      ],
      "type": "VEC2"
    },
    {
      "bufferView": 0,
      "byteOffset": 86412,
      "componentType": 5125,
      "count": 90,
      "type": "SCALAR"
    },
    {
      "bufferView": 2,
      "byteOffset": 106536,
      "componentType": 5126,
      "count": 38,
      "max": [
        -0.12333200126886368,
        0.053582001477479935,
        0.062203001230955124
      ],
      "min": [
        -0.13658499717712402,
        0.03463900089263916,
        0.05797100067138672
      ],
      "type": "VEC3"
    },
    {
      "bufferView": 2,
      "byteOffset": 106992,
      "componentType": 5126,
      "count": 38,
      "max": [
        0.055771008133888245,
        0.9462281465530396,
        0.9998595118522644
      ],
      "min": [
        -0.8005098104476929,
        -0.8032951951026917,
        -0.17567305266857147
      ],
      "type": "VEC3"
    },
    {
      "bufferView": 3,
      "byteOffset": 71024,
      "componentType": 5126,
      "count": 38,
      "max": [
        -0.5574436783790588,
        0.5358400940895081,
        0.08917860686779022,
        1.0
      ],
      "min": [
        -0.9970699548721313,
        -0.7543972730636597,
        -0.7593210935592651,
        1.0
      ],
      "type": "VEC4"
    },
    {
      "bufferView": 1,
      "byteOffset": 35512,
      "componentType": 5126,
      "count": 38,
      "max": [
        0.03438999876379967,
        0.4366999864578247
      ],
      "min": [
        0.0038999998942017555,
        0.3898800015449524
      ],
      "type": "VEC2"
    },
    {
      "bufferView": 0,
      "byteOffset": 86772,
      "componentType": 5125,
      "count": 168,
      "type": "SCALAR"
    },
    {
      "bufferView": 2,
      "byteOffset": 107448,
      "componentType": 5126,
      "count": 256,
      "max": [
        -0.11039599776268005,
        0.10722699761390686,
        0.08993600308895111
      ],
      "min": [
        -0.12080500274896622,
        -0.022151999175548553,
        -0.037661999464035034
      ],
      "type": "VEC3"
    },
    {
      "bufferView": 2,
      "byteOffset": 110520,
      "componentType": 5126,
      "count": 256,
      "max": [
        -0.11581697314977646,
        0.9745420217514038,
        0.9675236344337463
      ],
      "min": [
        -0.9903726577758789,
        -0.9305312633514404,
        -0.977363109588623
      ],
      "type": "VEC3"
    },
    {
      "bufferView": 3,
      "byteOffset": 71632,
      "componentType": 5126,
      "count": 256,
      "max": [
        0.9094805121421814,
        0.9971507787704468,
        0.3606976270675659,
        1.0
      ],
      "min": [
        -0.9045160412788391,
        0.03353303298354149,
        -0.9451279044151306,
        1.0
      ],
      "type": "VEC4"
    },
    {
      "bufferView": 1,
      "byteOffset": 35816,
      "componentType": 5126,
      "count": 256,
      "max": [
        0.3862999975681305,
        0.7050999999046326
      ],
      "min": [
        0.02735999971628189,
        0.36803001165390015
      ],
      "type": "VEC2"
    },
    {
      "bufferView": 0,
      "byteOffset": 87444,
      "componentType": 5125,
      "count": 888,
      "type": "SCALAR"
    },
    {
      "bufferView": 2,
      "byteOffset": 113592,
      "componentType": 5126,
      "count": 175,
      "max": [
        -0.11447399854660034,
        0.10232800245285034,
        0.08472699671983719
      ],
      "min": [
        -0.133992999792099,
        0.032003000378608704,
        0.0358709990978241
      ],
      "type": "VEC3"
    },
    {
      "bufferView": 2,
      "byteOffset": 115692,
      "componentType": 5126,
      "count": 175,
      "max": [
        0.10946698486804962,
        0.9421846270561218,
        0.999848484992981
      ],
      "min": [
        -0.7995582818984985,
        -0.07086402177810669,
        -0.4624490737915039
      ],
      "type": "VEC3"
    },
    {
      "bufferView": 3,
      "byteOffset": 75728,
      "componentType": 5126,
      "count": 175,
      "max": [
        0.999897301197052,
        0.7730843424797058,
        0.7871872186660767,
        1.0
      ],
      "min": [
        0.5998576283454895,
        -0.14320342242717743,
        -0.03720039874315262,
        1.0
      ],
      "type": "VEC4"
    },
    {
      "bufferView": 1,
      "byteOffset": 37864,
      "componentType": 5126,
      "count": 175,
      "max": [
        0.23388999700546265,
        0.28189998865127563
      ],
      "min": [
        0.17985999584197998,
        0.0722000002861023
      ],
      "type": "VEC2"
    },
    {
      "bufferView": 0,
      "byteOffset": 90996,
      "componentType": 5125,
      "count": 864,
      "type": "SCALAR"
    },
    {
      "bufferView": 2,
      "byteOffset": 117792,
      "componentType": 5126,
      "count": 41,
      "max": [
        -0.12333200126886368,
        0.054485999047756195,
        0.07030899822711945
      ],
      "min": [
        -0.13625800609588623,
        0.03463900089263916,
        0.058660998940467834
      ],
      "type": "VEC3"
    },
    {
      "bufferView": 2,
      "byteOffset": 118284,
      "componentType": 5126,
      "count": 41,
      "max": [
        -0.3082740306854248,
        0.9462281465530396,
        0.8496578335762024
      ],
      "min": [
        -0.9158375263214111,
        -0.8032951951026917,
        -0.8280006051063538
      ],
      "type": "VEC3"
    },
    {
      "bufferView": 3,
      "byteOffset": 78528,
      "componentType": 5126,
      "count": 41,
      "max": [
        0.15002229809761047,
        0.9879001975059509,
        0.9603091478347778,
        1.0
      ],
      "min": [
        -0.8250840902328491,
        -0.7878499627113342,
        -0.039327915757894516,
        -1.0
      ],
      "type": "VEC4"
    },
    {
      "bufferView": 1,
      "byteOffset": 39264,
      "componentType": 5126,
      "count": 41,
      "max": [
        0.10127999633550644,
        0.2500700056552887
      ],
      "min": [
        0.058639999479055405,
        0.19689999520778656
      ],
      "type": "VEC2"
    },
    {
      "bufferView": 0,
      "byteOffset": 94452,
      "componentType": 5125,
      "count": 186,
      "type": "SCALAR"
    },
    {
      "bufferView": 2,
      "byteOffset": 118776,
      "componentType": 5126,
      "count": 28,
      "max": [
        -0.1335580050945282,
        0.07991000264883041,
        0.04668800160288811
      ],
      "min": [
        -0.1455339938402176,
        0.0711200013756752,
        0.04107699915766716
      ],
      "type": "VEC3"
    },
    {
      "bufferView": 2,
      "byteOffset": 119112,
      "componentType": 5126,
      "count": 28,
      "max": [
        0.3303329050540924,
        0.9581581354141235,
        -0.07928397506475449
      ],
      "min": [
        -0.9829347729682922,
        -0.5367512106895447,
        -0.8803582787513733
      ],
      "type": "VEC3"
    },
    {
      "bufferView": 3,
      "byteOffset": 79184,
      "componentType": 5126,
      "count": 28,
      "max": [
        0.03707389160990715,
        0.17270362377166748,
        0.4859503507614136,
        1.0
      ],
      "min": [
        -0.8198169469833374,
        -0.978305459022522,
        -0.7257612347602844,
        1.0
      ],
      "type": "VEC4"
    },
    {
      "bufferView": 1,
      "byteOffset": 39592,
      "componentType": 5126,
      "count": 28,
      "max": [
        0.29840001463890076,
        0.03245000168681145
      ],
      "min": [
        0.2736999988555908,
        0.0038999998942017555
      ],
      "type": "VEC2"
    },
    {
      "bufferView": 0,
      "byteOffset": 95196,
      "componentType": 5125,
      "count": 114,
      "type": "SCALAR"
    },
    {
      "bufferView": 2,
      "byteOffset": 119448,
      "componentType": 5126,
      "count": 91,
      "max": [
        -0.13502700626850128,
        0.07991000264883041,
        0.062415000051259995
      ],
      "min": [
        -0.14725999534130096,
        0.058428000658750534,
        0.04107699915766716
      ],
      "type": "VEC3"
    },
    {
      "bufferView": 2,
      "byteOffset": 120540,
      "componentType": 5126,
      "count": 91,
      "max": [
        0.6525530219078064,
        0.9581581354141235,
        0.9992260932922363
      ],
      "min": [
        -0.9976816177368164,
        -0.8832897543907166,
        -0.8773673176765442
      ],
      "type": "VEC3"
    },
    {
      "bufferView": 3,
      "byteOffset": 79632,
      "componentType": 5126,
      "count": 91,
      "max": [
        0.8534490466117859,
        0.9995373487472534,
        0.1491316556930542,
        1.0
      ],
      "min": [
        -0.7339308261871338,
        -0.3055126667022705,
        -0.9391824007034302,
        -1.0
      ],
      "type": "VEC4"
    },
    {
      "bufferView": 1,
      "byteOffset": 39816,
      "componentType": 5126,
      "count": 91,
      "max": [
        0.4859200119972229,
        0.5318199992179871
      ],
      "min": [
        0.40665000677108765,
        0.4525800049304962
      ],
      "type": "VEC2"
    },
    {
      "bufferView": 0,
      "byteOffset": 95652,
      "componentType": 5125,
      "count": 432,
      "type": "SCALAR"
    },
    {
      "bufferView": 2,
      "byteOffset": 121632,
      "componentType": 5126,
      "count": 29,
      "max": [
        -0.1365790069103241,
        0.06404999643564224,
        0.062415000051259995
      ],
      "min": [
        -0.14604200422763824,
        0.058428000658750534,
        0.05488000065088272
      ],
      "type": "VEC3"
    },
    {
      "bufferView": 2,
      "byteOffset": 121980,
      "componentType": 5126,
      "count": 29,
      "max": [
        0.6062681078910828,
        0.17384105920791626,
        0.9992260932922363
      ],
      "min": [
        -0.9365468621253967,
        -0.9531798958778381,
        -0.4993381202220917
      ],
      "type": "VEC3"
    },
    {
      "bufferView": 3,
      "byteOffset": 81088,
      "componentType": 5126,
      "count": 29,
      "max": [
        0.8372931480407715,
        0.2688392698764801,
        0.3059759736061096,
        1.0
      ],
      "min": [
        -0.036105066537857056,
        -0.9936901926994324,
        -0.7952647805213928,
        1.0
      ],
      "type": "VEC4"
    },
    {
      "bufferView": 1,
      "byteOffset": 40544,
      "componentType": 5126,
      "count": 29,
      "max": [
        0.030950000509619713,
        0.30678001046180725
      ],
      "min": [
        0.0038999998942017555,
        0.28613001108169556
      ],
      "type": "VEC2"
    },
    {
      "bufferView": 0,
      "byteOffset": 97380,
      "componentType": 5125,
      "count": 120,
      "type": "SCALAR"
    },
    {
      "bufferView": 2,
      "byteOffset": 122328,
      "componentType": 5126,
      "count": 215,
      "max": [
        -0.11549899727106094,
        0.03240400180220604,
        0.08472699671983719
      ],
      "min": [
        -0.13627000153064728,
        -0.018883999437093735,
        0.009424000047147274
      ],
      "type": "VEC3"
    },
    {
      "bufferView": 2,
      "byteOffset": 124908,
      "componentType": 5126,
      "count": 215,
      "max": [
        0.0692330002784729,
        0.300689160823822,
        0.9781663417816162
      ],
      "min": [
        -0.9388948678970337,
        -0.9786604642868042,
        -0.8584591150283813
      ],
      "type": "VEC3"
    },
    {
      "bufferView": 3,
      "byteOffset": 81552,
      "componentType": 5126,
      "count": 215,
      "max": [
        0.999845564365387,
        0.050907377153635025,
        0.7830027341842651,
        1.0
      ],
      "min": [
        0.3416202664375305,
        -0.9010032415390015,
        -0.12902767956256866,
        1.0
      ],
      "type": "VEC4"
    },
    {
      "bufferView": 1,
      "byteOffset": 40776,
      "componentType": 5126,
      "count": 215,
      "max": [
        0.9491999745368958,
        0.2186799943447113
      ],
      "min": [
        0.8993200063705444,
        0.0038999998942017555
      ],
      "type": "VEC2"
    },
    {
      "bufferView": 0,
      "byteOffset": 97860,
      "componentType": 5125,
      "count": 1071,
      "type": "SCALAR"
    },
    {
      "bufferView": 2,
      "byteOffset": 127488,
      "componentType": 5126,
      "count": 575,
      "max": [
        -0.09346400201320648,
        0.06452299654483795,
        0.057785000652074814
      ],
      "min": [
        -0.13906900584697723,
        0.008442999795079231,
        -0.010448000393807888
      ],
      "type": "VEC3"
    },
    {
      "bufferView": 2,
      "byteOffset": 134388,
      "componentType": 5126,
      "count": 575,
      "max": [
        0.976586103439331,
        0.997697651386261,
        0.9930137395858765
      ],
      "min": [
        -0.7676790952682495,
        -0.9998921155929565,
        -0.9995973706245422
      ],
      "type": "VEC3"
    },
    {
      "bufferView": 3,
      "byteOffset": 84992,
      "componentType": 5126,
      "count": 575,
      "max": [
        0.36516860127449036,
        0.8152791857719421,
        0.9508932828903198,
        1.0
      ],
      "min": [
        -0.9997212886810303,
        -0.9092839956283569,
        -0.967802882194519,
        -1.0
      ],
      "type": "VEC4"
    },
    {
      "bufferView": 1,
      "byteOffset": 42496,
      "componentType": 5126,
      "count": 575,
      "max": [
        0.8358399868011475,
        0.8146399855613708
      ],
      "min": [
        0.7077299952507019,
        0.4537299871444702
      ],
      "type": "VEC2"
    },
    {
      "bufferView": 0,
      "byteOffset": 102144,
      "componentType": 5125,
      "count": 2952,
      "type": "SCALAR"
    },
    {
      "bufferView": 2,
      "byteOffset": 141288,
      "componentType": 5126,
      "count": 967,
      "max": [
        -0.1270589977502823,
        0.10229399800300598,
        0.0832659974694252
      ],
      "min": [
        -0.13998199999332428,
        -0.011675000190734863,
        -0.031676001846790314
      ],
      "type": "VEC3"
    },
    {
      "bufferView": 2,
      "byteOffset": 152892,
      "componentType": 5126,
      "count": 967,
      "max": [
        -0.1528320163488388,
        0.9846751093864441,
        0.9880601167678833
      ],
      "min": [
        -0.9999756217002869,
        -0.8926717042922974,
        -0.9521196484565735
      ],
      "type": "VEC3"
    },
    {
      "bufferView": 3,
      "byteOffset": 94192,
      "componentType": 5126,
      "count": 967,
      "max": [
        0.9370242953300476,
        0.9773038625717163,
        0.7842146158218384,
        1.0
      ],
      "min": [
        -0.9756948947906494,
        -0.21809963881969452,
        -0.2929430603981018,
        -1.0
      ],
      "type": "VEC4"
    },
    {
      "bufferView": 1,
      "byteOffset": 47096,
      "componentType": 5126,
      "count": 967,
      "max": [
        0.6552600264549255,
        0.7887799739837646
      ],
      "min": [
        0.3792699873447418,
        0.5143799781799316
      ],
      "type": "VEC2"
    },
    {
      "bufferView": 0,
      "byteOffset": 113952,
      "componentType": 5125,
      "count": 5079,
      "type": "SCALAR"
    },
    {
      "bufferView": 2,
      "byteOffset": 164496,
      "componentType": 5126,
      "count": 55,
      "max": [
        -0.10928399860858917,
        0.18283399939537048,
        0.03633800148963928
      ],
      "min": [
        -0.12145300209522247,
        0.16627800464630127,
        0.01637200079858303
      ],
      "type": "VEC3"
    },
    {
      "bufferView": 2,
      "byteOffset": 165156,
      "componentType": 5126,
      "count": 55,
      "max": [
        -0.331880122423172,
        0.8977712988853455,
        0.8306280970573425
      ],
      "min": [
        -0.9737391471862793,
        -0.7078720331192017,
        -0.6690587401390076
      ],
      "type": "VEC3"
    },
    {
      "bufferView": 3,
      "byteOffset": 109664,
      "componentType": 5126,
      "count": 55,
      "max": [
        0.6606329679489136,
        0.5442609190940857,
        -0.5377545356750488,
        1.0
      ],
      "min": [
        -0.8046954274177551,
        -0.2589119076728821,
        -0.9989961981773376,
        1.0
      ],
      "type": "VEC4"
    },
    {
      "bufferView": 1,
      "byteOffset": 54832,
      "componentType": 5126,
      "count": 55,
      "max": [
        0.3018600046634674,
        0.6109899878501892
      ],
      "min": [
        0.24632999300956726,
        0.5651999711990356
      ],
      "type": "VEC2"
    },
    {
      "bufferView": 0,
      "byteOffset": 134268,
      "componentType": 5125,
      "count": 249,
      "type": "SCALAR"
    },
    {
      "bufferView": 2,
      "byteOffset": 165816,
      "componentType": 5126,
      "count": 355,
      "max": [
        -0.06825699657201767,
        0.19752700626850128,
        0.05090999975800514
      ],
      "min": [
        -0.12276100367307663,
        0.15601399540901184,
        0.00673400005325675
      ],
      "type": "VEC3"
    },
    {
      "bufferView": 2,
      "byteOffset": 170076,
      "componentType": 5126,
      "count": 355,
      "max": [
        0.9998968839645386,
        0.9815837740898132,
        0.9878619909286499
      ],
      "min": [
        -0.9203345775604248,
        -0.9998565912246704,
        -0.998735249042511
      ],
      "type": "VEC3"
    },
    {
      "bufferView": 3,
      "byteOffset": 110544,
      "componentType": 5126,
      "count": 355,
      "max": [
        0.5972093939781189,
        0.9573089480400085,
        0.7471427917480469,
        1.0
      ],
      "min": [
        -0.998978853225708,
        -0.8983592391014099,
        -0.8313919901847839,
        1.0
      ],
      "type": "VEC4"
    },
    {
      "bufferView": 1,
      "byteOffset": 55272,
      "componentType": 5126,
      "count": 355,
      "max": [
        0.9432200193405151,
        0.9174000024795532
      ],
      "min": [
        0.03127000108361244,
        0.546019971370697
      ],
      "type": "VEC2"
    },
    {
      "bufferView": 0,
      "byteOffset": 135264,
      "componentType": 5125,
      "count": 1779,
      "type": "SCALAR"
    },
    {
      "bufferView": 2,
      "byteOffset": 174336,
      "componentType": 5126,
      "count": 47,
      "max": [
        -0.10928399860858917,
        0.16983099281787872,
        0.03934299945831299
      ],
      "min": [
        -0.12162400037050247,
        0.16516199707984924,
        0.016022000461816788
      ],
      "type": "VEC3"
    },
    {
      "bufferView": 2,
      "byteOffset": 174900,
      "componentType": 5126,
      "count": 47,
      "max": [
        0.013308006338775158,
        0.999616265296936,
        0.613054096698761
      ],
      "min": [
        -0.7411747574806213,
        0.0549599826335907,
        -0.9390023350715637
      ],
      "type": "VEC3"
    },
    {
      "bufferView": 3,
      "byteOffset": 116224,
      "componentType": 5126,
      "count": 47,
      "max": [
        -0.5774854421615601,
        0.011629405431449413,
        0.5936979651451111,
        1.0
      ],
      "min": [
        -0.9996019601821899,
        -0.7194169759750366,
        -0.25076666474342346,
        1.0
      ],
      "type": "VEC4"
    },
    {
      "bufferView": 1,
      "byteOffset": 58112,
      "componentType": 5126,
      "count": 47,
      "max": [
        0.9861099720001221,
        0.1305599957704544
      ],
      "min": [
        0.9579700231552124,
        0.07340999692678452
      ],
      "type": "VEC2"
    },
    {
      "bufferView": 0,
      "byteOffset": 142380,
      "componentType": 5125,
      "count": 207,
      "type": "SCALAR"
    },
    {
      "bufferView": 2,
      "byteOffset": 175464,
      "componentType": 5126,
      "count": 455,
      "max": [
        -0.0665849968791008,
        0.1972460001707077,
        0.23397499322891235
      ],
      "min": [
        -0.09156700223684311,
        0.16143999993801117,
        0.03773399814963341
      ],
      "type": "VEC3"
    },
    {
      "bufferView": 2,
      "byteOffset": 180924,
      "componentType": 5126,
      "count": 455,
      "max": [
        0.9998328685760498,
        0.994468092918396,
        0.889987587928772
      ],
      "min": [
        -0.9994343519210815,
        -0.9997972249984741,
        -0.20266003906726837
      ],
      "type": "VEC3"
    },
    {
      "bufferView": 3,
      "byteOffset": 116976,
      "componentType": 5126,
      "count": 455,
      "max": [
        0.9997443556785583,
        0.9999555349349976,
        0.35093000531196594,
        1.0
      ],
      "min": [
        -0.998909592628479,
        -0.9997215270996094,
        -0.5181688666343689,
        1.0
      ],
      "type": "VEC4"
    },
    {
      "bufferView": 1,
      "byteOffset": 58488,
      "componentType": 5126,
      "count": 455,
      "max": [
        0.8892199993133545,
        0.456169992685318
      ],
      "min": [
        0.7194600105285645,
        0.0038999998942017555
      ],
      "type": "VEC2"
    },
    {
      "bufferView": 0,
      "byteOffset": 143208,
      "componentType": 5125,
      "count": 2427,
      "type": "SCALAR"
    },
    {
      "bufferView": 2,
      "byteOffset": 186384,
      "componentType": 5126,
      "count": 20,
      "max": [
        -0.11113999783992767,
        0.18119199573993683,
        0.03997499868273735
      ],
      "min": [
        -0.12194599956274033,
        0.16881099343299866,
        0.035537999123334885
      ],
      "type": "VEC3"
    },
    {
      "bufferView": 2,
      "byteOffset": 186624,
      "componentType": 5126,
      "count": 20,
      "max": [
        -0.1006530374288559,
        0.3777919113636017,
        -0.44835221767425537
      ],
      "min": [
        -0.7697701454162598,
        -0.5626178979873657,
        -0.9801915287971497
      ],
      "type": "VEC3"
    },
    {
      "bufferView": 3,
      "byteOffset": 124256,
      "componentType": 5126,
      "count": 20,
      "max": [
        -0.4744459390640259,
        0.7332557439804077,
        0.6547152400016785,
        1.0
      ],
      "min": [
        -0.7785754799842834,
        0.5655973553657532,
        0.12029414623975754,
        1.0
      ],
      "type": "VEC4"
    },
    {
      "bufferView": 1,
      "byteOffset": 62128,
      "componentType": 5126,
      "count": 20,
      "max": [
        0.17983999848365784,
        0.3019599914550781
      ],
      "min": [
        0.14857999980449677,
        0.27344998717308044
      ],
      "type": "VEC2"
    },
    {
      "bufferView": 0,
      "byteOffset": 152916,
      "componentType": 5125,
      "count": 75,
      "type": "SCALAR"
    }
  ],
  "asset": {
    "extras": {
      "author": "Firefighter Vision (https://sketchfab.com/firefightervision)",
      "license": "CC-BY-NC-4.0 (http://creativecommons.org/licenses/by-nc/4.0/)",
      "source": "https://sketchfab.com/3d-models/firefighter-vision-hydrant-key-reducer-333fd0ca581f4806bcf6e8068351e351",
      "title": "Firefighter Vision: Hydrant Key & Reducer"
    },
    "generator": "Sketchfab-15.61.0",
    "version": "2.0"
  },
  "bufferViews": [
    {
      "buffer": 0,
      "byteLength": 153216,
      "name": "floatBufferViews",
      "target": 34963
    },
    {
      "buffer": 0,
      "byteLength": 62288,
      "byteOffset": 153216,
      "byteStride": 8,
      "name": "floatBufferViews",
      "target": 34962
    },
    {
      "buffer": 0,
      "byteLength": 186864,
      "byteOffset": 215504,
      "byteStride": 12,
      "name": "floatBufferViews",
      "target": 34962
    },
    {
      "buffer": 0,
      "byteLength": 124576,
      "byteOffset": 402368,
      "byteStride": 16,
      "name": "floatBufferViews",
      "target": 34962
    }
  ],
  "buffers": [
    {
      "byteLength": 526944,
      "uri": "scene.bin"
    }
  ],
  "images": [
    {
      "uri": "textures/1001_baseColor.jpeg"
    },
    {
      "uri": "textures/1001_metallicRoughness.png"
    },
    {
      "uri": "textures/1001_normal.png"
    }
  ],
  "materials": [
    {
      "doubleSided": true,
      "name": "1001",
      "normalTexture": {
        "index": 2
      },
      "pbrMetallicRoughness": {
        "baseColorTexture": {
          "index": 0
        },
        "metallicRoughnessTexture": {
          "index": 1
        }
      }
    }
  ],
  "meshes": [
    {
      "name": "defaultMaterial",
      "primitives": [
        {
          "attributes": {
            "NORMAL": 1,
            "POSITION": 0,
            "TANGENT": 2,
            "TEXCOORD_0": 3
          },
          "indices": 4,
          "material": 0,
          "mode": 4
        }
      ]
    },
    {
      "name": "defaultMaterial",
      "primitives": [
        {
          "attributes": {
            "NORMAL": 6,
            "POSITION": 5,
            "TANGENT": 7,
            "TEXCOORD_0": 8
          },
          "indices": 9,
          "material": 0,
          "mode": 4
        }
      ]
    },
    {
      "name": "defaultMaterial",
      "primitives": [
        {
          "attributes": {
            "NORMAL": 11,
            "POSITION": 10,
            "TANGENT": 12,
            "TEXCOORD_0": 13
          },
          "indices": 14,
          "material": 0,
          "mode": 4
        }
      ]
    },
    {
      "name": "defaultMaterial",
      "primitives": [
        {
          "attributes": {
            "NORMAL": 16,
            "POSITION": 15,
            "TANGENT": 17,
            "TEXCOORD_0": 18
          },
          "indices": 19,
          "material": 0,
          "mode": 4
        }
      ]
    },
    {
      "name": "defaultMaterial",
      "primitives": [
        {
          "attributes": {
            "NORMAL": 21,
            "POSITION": 20,
            "TANGENT": 22,
            "TEXCOORD_0": 23
          },
          "indices": 24,
          "material": 0,
          "mode": 4
        }
      ]
    },
    {
      "name": "defaultMaterial",
      "primitives": [
        {
          "attributes": {
            "NORMAL": 26,
            "POSITION": 25,
            "TANGENT": 27,
            "TEXCOORD_0": 28
          },
          "indices": 29,
          "material": 0,
          "mode": 4
        }
      ]
    },
    {
      "name": "defaultMaterial",
      "primitives": [
        {
          "attributes": {
            "NORMAL": 31,
            "POSITION": 30,
            "TANGENT": 32,
            "TEXCOORD_0": 33
          },
          "indices": 34,
          "material": 0,
          "mode": 4
        }
      ]
    },
    {
      "name": "defaultMaterial",
      "primitives": [
        {
          "attributes": {
            "NORMAL": 36,
            "POSITION": 35,
            "TANGENT": 37,
            "TEXCOORD_0": 38
          },
          "indices": 39,
          "material": 0,
          "mode": 4
        }
      ]
    },
    {
      "name": "defaultMaterial",
      "primitives": [
        {
          "attributes": {
            "NORMAL": 41,
            "POSITION": 40,
            "TANGENT": 42,
            "TEXCOORD_0": 43
          },
          "indices": 44,
          "material": 0,
          "mode": 4
        }
      ]
    },
    {
      "name": "defaultMaterial",
      "primitives": [
        {
          "attributes": {
            "NORMAL": 46,
            "POSITION": 45,
            "TANGENT": 47,
            "TEXCOORD_0": 48
          },
          "indices": 49,
          "material": 0,
          "mode": 4
        }
      ]
    },
    {
      "name": "defaultMaterial",
      "primitives": [
        {
          "attributes": {
            "NORMAL": 51,
            "POSITION": 50,
            "TANGENT": 52,
            "TEXCOORD_0": 53
          },
          "indices": 54,
          "material": 0,
          "mode": 4
        }
      ]
    },
    {
      "name": "defaultMaterial",
      "primitives": [
        {
          "attributes": {
            "NORMAL": 56,
            "POSITION": 55,
            "TANGENT": 57,
            "TEXCOORD_0": 58
          },
          "indices": 59,
          "material": 0,
          "mode": 4
        }
      ]
    },
    {
      "name": "defaultMaterial",
      "primitives": [
        {
          "attributes": {
            "NORMAL": 61,
            "POSITION": 60,
            "TANGENT": 62,
            "TEXCOORD_0": 63
          },
          "indices": 64,
          "material": 0,
          "mode": 4
        }
      ]
    },
    {
      "name": "defaultMaterial",
      "primitives": [
        {
          "attributes": {
            "NORMAL": 66,
            "POSITION": 65,
            "TANGENT": 67,
            "TEXCOORD_0": 68
          },
          "indices": 69,
          "material": 0,
          "mode": 4
        }
      ]
    },
    {
      "name": "defaultMaterial",
      "primitives": [
        {
          "attributes": {
            "NORMAL": 71,
            "POSITION": 70,
            "TANGENT": 72,
            "TEXCOORD_0": 73
          },
          "indices": 74,
          "material": 0,
          "mode": 4
        }
      ]
    },
    {
      "name": "defaultMaterial",
      "primitives": [
        {
          "attributes": {
            "NORMAL": 76,
            "POSITION": 75,
            "TANGENT": 77,
            "TEXCOORD_0": 78
          },
          "indices": 79,
          "material": 0,
          "mode": 4
        }
      ]
    },
    {
      "name": "defaultMaterial",
      "primitives": [
        {
          "attributes": {
            "NORMAL": 81,
            "POSITION": 80,
            "TANGENT": 82,
            "TEXCOORD_0": 83
          },
          "indices": 84,
          "material": 0,
          "mode": 4
        }
      ]
    },
    {
      "name": "defaultMaterial",
      "primitives": [
        {
          "attributes": {
            "NORMAL": 86,
            "POSITION": 85,
            "TANGENT": 87,
            "TEXCOORD_0": 88
          },
          "indices": 89,
          "material": 0,
          "mode": 4
        }
      ]
    },
    {
      "name": "defaultMaterial",
      "primitives": [
        {
          "attributes": {
            "NORMAL": 91,
            "POSITION": 90,
            "TANGENT": 92,
            "TEXCOORD_0": 93
          },
          "indices": 94,
          "material": 0,
          "mode": 4
        }
      ]
    },
    {
      "name": "defaultMaterial",
      "primitives": [
        {
          "attributes": {
            "NORMAL": 96,
            "POSITION": 95,
            "TANGENT": 97,
            "TEXCOORD_0": 98
          },
          "indices": 99,
          "material": 0,
          "mode": 4
        }
      ]
    },
    {
      "name": "defaultMaterial",
      "primitives": [
        {
          "attributes": {
            "NORMAL": 101,
            "POSITION": 100,
            "TANGENT": 102,
            "TEXCOORD_0": 103
          },
          "indices": 104,
          "material": 0,
          "mode": 4
        }
      ]
    },
    {
      "name": "defaultMaterial",
      "primitives": [
        {
          "attributes": {
            "NORMAL": 106,
            "POSITION": 105,
            "TANGENT": 107,
            "TEXCOORD_0": 108
          },
          "indices": 109,
          "material": 0,
          "mode": 4
        }
      ]
    },
    {
      "name": "defaultMaterial",
      "primitives": [
        {
          "attributes": {
            "NORMAL": 111,
            "POSITION": 110,
            "TANGENT": 112,
            "TEXCOORD_0": 113
          },
          "indices": 114,
          "material": 0,
          "mode": 4
        }
      ]
    },
    {
      "name": "defaultMaterial",
      "primitives": [
        {
          "attributes": {
            "NORMAL": 116,
            "POSITION": 115,
            "TANGENT": 117,
            "TEXCOORD_0": 118
          },
          "indices": 119,
          "material": 0,
          "mode": 4
        }
      ]
    },
    {
      "name": "defaultMaterial",
      "primitives": [
        {
          "attributes": {
            "NORMAL": 121,
            "POSITION": 120,
            "TANGENT": 122,
            "TEXCOORD_0": 123
          },
          "indices": 124,
          "material": 0,
          "mode": 4
        }
      ]
    },
    {
      "name": "defaultMaterial",
      "primitives": [
        {
          "attributes": {
            "NORMAL": 126,
            "POSITION": 125,
            "TANGENT": 127,
            "TEXCOORD_0": 128
          },
          "indices": 129,
          "material": 0,
          "mode": 4
        }
      ]
    },
    {
      "name": "defaultMaterial",
      "primitives": [
        {
          "attributes": {
            "NORMAL": 131,
            "POSITION": 130,
            "TANGENT": 132,
            "TEXCOORD_0": 133
          },
          "indices": 134,
          "material": 0,
          "mode": 4
        }
      ]
    },
    {
      "name": "defaultMaterial",
      "primitives": [
        {
          "attributes": {
            "NORMAL": 136,
            "POSITION": 135,
            "TANGENT": 137,
            "TEXCOORD_0": 138
          },
          "indices": 139,
          "material": 0,
          "mode": 4
        }
      ]
    },
    {
      "name": "defaultMaterial",
      "primitives": [
        {
          "attributes": {
            "NORMAL": 141,
            "POSITION": 140,
            "TANGENT": 142,
            "TEXCOORD_0": 143
          },
          "indices": 144,
          "material": 0,
          "mode": 4
        }
      ]
    },
    {
      "name": "defaultMaterial",
      "primitives": [
        {
          "attributes": {
            "NORMAL": 146,
            "POSITION": 145,
            "TANGENT": 147,
            "TEXCOORD_0": 148
          },
          "indices": 149,
          "material": 0,
          "mode": 4
        }
      ]
    },
    {
      "name": "defaultMaterial",
      "primitives": [
        {
          "attributes": {
            "NORMAL": 151,
            "POSITION": 150,
            "TANGENT": 152,
            "TEXCOORD_0": 153
          },
          "indices": 154,
          "material": 0,
          "mode": 4
        }
      ]
    },
    {
      "name": "defaultMaterial",
      "primitives": [
        {
          "attributes": {
            "NORMAL": 156,
            "POSITION": 155,
            "TANGENT": 157,
            "TEXCOORD_0": 158
          },
          "indices": 159,
          "material": 0,
          "mode": 4
        }
      ]
    },
    {
      "name": "defaultMaterial",
      "primitives": [
        {
          "attributes": {
            "NORMAL": 161,
            "POSITION": 160,
            "TANGENT": 162,
            "TEXCOORD_0": 163
          },
          "indices": 164,
          "material": 0,
          "mode": 4
        }
      ]
    },
    {
      "name": "defaultMaterial",
      "primitives": [
        {
          "attributes": {
            "NORMAL": 166,
            "POSITION": 165,
            "TANGENT": 167,
            "TEXCOORD_0": 168
          },
          "indices": 169,
          "material": 0,
          "mode": 4
        }
      ]
    },
    {
      "name": "defaultMaterial",
      "primitives": [
        {
          "attributes": {
            "NORMAL": 171,
            "POSITION": 170,
            "TANGENT": 172,
            "TEXCOORD_0": 173
          },
          "indices": 174,
          "material": 0,
          "mode": 4
        }
      ]
    },
    {
      "name": "defaultMaterial",
      "primitives": [
        {
          "attributes": {
            "NORMAL": 176,
            "POSITION": 175,
            "TANGENT": 177,
            "TEXCOORD_0": 178
          },
          "indices": 179,
          "material": 0,
          "mode": 4
        }
      ]
    },
    {
      "name": "defaultMaterial",
      "primitives": [
        {
          "attributes": {
            "NORMAL": 181,
            "POSITION": 180,
            "TANGENT": 182,
            "TEXCOORD_0": 183
          },
          "indices": 184,
          "material": 0,
          "mode": 4
        }
      ]
    },
    {
      "name": "defaultMaterial",
      "primitives": [
        {
          "attributes": {
            "NORMAL": 186,
            "POSITION": 185,
            "TANGENT": 187,
            "TEXCOORD_0": 188
          },
          "indices": 189,
          "material": 0,
          "mode": 4
        }
      ]
    },
    {
      "name": "defaultMaterial",
      "primitives": [
        {
          "attributes": {
            "NORMAL": 191,
            "POSITION": 190,
            "TANGENT": 192,
            "TEXCOORD_0": 193
          },
          "indices": 194,
          "material": 0,
          "mode": 4
        }
      ]
    },
    {
      "name": "defaultMaterial",
      "primitives": [
        {
          "attributes": {
            "NORMAL": 196,
            "POSITION": 195,
            "TANGENT": 197,
            "TEXCOORD_0": 198
          },
          "indices": 199,
          "material": 0,
          "mode": 4
        }
      ]
    },
    {
      "name": "defaultMaterial",
      "primitives": [
        {
          "attributes": {
            "NORMAL": 201,
            "POSITION": 200,
            "TANGENT": 202,
            "TEXCOORD_0": 203
          },
          "indices": 204,
          "material": 0,
          "mode": 4
        }
      ]
    },
    {
      "name": "defaultMaterial",
      "primitives": [
        {
          "attributes": {
            "NORMAL": 206,
            "POSITION": 205,
            "TANGENT": 207,
            "TEXCOORD_0": 208
          },
          "indices": 209,
          "material": 0,
          "mode": 4
        }
      ]
    },
    {
      "name": "defaultMaterial",
      "primitives": [
        {
          "attributes": {
            "NORMAL": 211,
            "POSITION": 210,
            "TANGENT": 212,
            "TEXCOORD_0": 213
          },
          "indices": 214,
          "material": 0,
          "mode": 4
        }
      ]
    },
    {
      "name": "defaultMaterial",
      "primitives": [
        {
          "attributes": {
            "NORMAL": 216,
            "POSITION": 215,
            "TANGENT": 217,
            "TEXCOORD_0": 218
          },
          "indices": 219,
          "material": 0,
          "mode": 4
        }
      ]
    },
    {
      "name": "defaultMaterial",
      "primitives": [
        {
          "attributes": {
            "NORMAL": 221,
            "POSITION": 220,
            "TANGENT": 222,
            "TEXCOORD_0": 223
          },
          "indices": 224,
          "material": 0,
          "mode": 4
        }
      ]
    },
    {
      "name": "defaultMaterial",
      "primitives": [
        {
          "attributes": {
            "NORMAL": 226,
            "POSITION": 225,
            "TANGENT": 227,
            "TEXCOORD_0": 228
          },
          "indices": 229,
          "material": 0,
          "mode": 4
        }
      ]
    },
    {
      "name": "defaultMaterial",
      "primitives": [
        {
          "attributes": {
            "NORMAL": 231,
            "POSITION": 230,
            "TANGENT": 232,
            "TEXCOORD_0": 233
          },
          "indices": 234,
          "material": 0,
          "mode": 4
        }
      ]
    }
  ],
  "nodes": [
    {
      "children": [
        1
      ],
      "matrix": [
        1.0,
        0.0,
        0.0,
        0.0,
        0.0,
        2.220446049250313e-16,
        -1.0,
        0.0,
        0.0,
        1.0,
        2.220446049250313e-16,
        0.0,
        0.0,
        0.0,
        0.0,
        1.0
      ],
      "name": "Sketchfab_model"
    },
    {
      "children": [
        2,
        4,
        6,
        8,
        10,
        12,
        14,
        16,
        18,
        20,
        22,
        24,
        26,
        28,
        30,
        32,
        34,
        36,
        38,
        40,
        42,
        44,
        46,
        48,
        50,
        52,
        54,
        56,
        58,
        60,
        62,
        64,
        66,
        68,
        70,
        72,
        74,
        76,
        78,
        80,
        82,
        84,
        86,
        88,
        90,
        92,
        94
      ],
      "matrix": [
        1.0,
        0.0,
        0.0,
        0.0,
        0.0,
        -4.371139006309477e-08,
        0.999999999999999,
        0.0,
        0.0,
        -0.999999999999999,
        -4.371139006309477e-08,
        0.0,
        0.0,
        0.0,
        0.0,
        1.0
      ],
      "name": "Collada visual scene group"
    },
    {
      "children": [
        3
      ],
      "name": "Group16775"
    },
    {
      "mesh": 0,
      "name": "defaultMaterial"
    },
    {
      "children": [
        5
      ],
      "name": "Group28"
    },
    {
      "mesh": 1,
      "name": "defaultMaterial"
    },
    {
      "children": [
        7
      ],
      "name": "Group17"
    },
    {
      "mesh": 2,
      "name": "defaultMaterial"
    },
    {
      "children": [
        9
      ],
      "name": "Group9"
    },
    {
      "mesh": 3,
      "name": "defaultMaterial"
    },
    {
      "children": [
        11
      ],
      "name": "Group26"
    },
    {
      "mesh": 4,
      "name": "defaultMaterial"
    },
    {
      "children": [
        13
      ],
      "name": "Group44"
    },
    {
      "mesh": 5,
      "name": "defaultMaterial"
    },
    {
      "children": [
        15
      ],
      "name": "Group39"
    },
    {
      "mesh": 6,
      "name": "defaultMaterial"
    },
    {
      "children": [
        17
      ],
      "name": "Group23"
    },
    {
      "mesh": 7,
      "name": "defaultMaterial"
    },
    {
      "children": [
        19
      ],
      "name": "Group11"
    },
    {
      "mesh": 8,
      "name": "defaultMaterial"
    },
    {
      "children": [
        21
      ],
      "name": "Group37"
    },
    {
      "mesh": 9,
      "name": "defaultMaterial"
    },
    {
      "children": [
        23
      ],
      "name": "Group27"
    },
    {
      "mesh": 10,
      "name": "defaultMaterial"
    },
    {
      "children": [
        25
      ],
      "name": "Group21"
    },
    {
      "mesh": 11,
      "name": "defaultMaterial"
    },
    {
      "children": [
        27
      ],
      "name": "Group34"
    },
    {
      "mesh": 12,
      "name": "defaultMaterial"
    },
    {
      "children": [
        29
      ],
      "name": "Group16"
    },
    {
      "mesh": 13,
      "name": "defaultMaterial"
    },
    {
      "children": [
        31
      ],
      "name": "Group45"
    },
    {
      "mesh": 14,
      "name": "defaultMaterial"
    },
    {
      "children": [
        33
      ],
      "name": "Group22"
    },
    {
      "mesh": 15,
      "name": "defaultMaterial"
    },
    {
      "children": [
        35
      ],
      "name": "Group32"
    },
    {
      "mesh": 16,
      "name": "defaultMaterial"
    },
    {
      "children": [
        37
      ],
      "name": "Group31"
    },
    {
      "mesh": 17,
      "name": "defaultMaterial"
    },
    {
      "children": [
        39
      ],
      "name": "Group41"
    },
    {
      "mesh": 18,
      "name": "defaultMaterial"
    },
    {
      "children": [
        41
      ],
      "name": "Group8"
    },
    {
      "mesh": 19,
      "name": "defaultMaterial"
    },
    {
      "children": [
        43
      ],
      "name": "Group47"
    },
    {
      "mesh": 20,
      "name": "defaultMaterial"
    },
    {
      "children": [
        45
      ],
      "name": "Group29"
    },
    {
      "mesh": 21,
      "name": "defaultMaterial"
    },
    {
      "children": [
        47
      ],
      "name": "Group5"
    },
    {
      "mesh": 22,
      "name": "defaultMaterial"
    },
    {
      "children": [
        49
      ],
      "name": "Group35"
    },
    {
      "mesh": 23,
      "name": "defaultMaterial"
    },
    {
      "children": [
        51
      ],
      "name": "Group12"
    },
    {
      "mesh": 24,
      "name": "defaultMaterial"
    },
    {
      "children": [
        53
      ],
      "name": "Group3681"
    },
    {
      "mesh": 25,
      "name": "defaultMaterial"
    },
    {
      "children": [
        55
      ],
      "name": "Group14"
    },
    {
      "mesh": 26,
      "name": "defaultMaterial"
    },
    {
      "children": [
        57
      ],
      "name": "Group42"
    },
    {
      "mesh": 27,
      "name": "defaultMaterial"
    },
    {
      "children": [
        59
      ],
      "name": "Group36"
    },
    {
      "mesh": 28,
      "name": "defaultMaterial"
    },
    {
      "children": [
        61
      ],
      "name": "Group25"
    },
    {
      "mesh": 29,
      "name": "defaultMaterial"
    },
    {
      "children": [
        63
      ],
      "name": "Group24"
    },
    {
      "mesh": 30,
      "name": "defaultMaterial"
    },
    {
      "children": [
        65
      ],
      "name": "Group46"
    },
    {
      "mesh": 31,
      "name": "defaultMaterial"
    },
    {
      "children": [
        67
      ],
      "name": "Group40"
    },
    {
      "mesh": 32,
      "name": "defaultMaterial"
    },
    {
      "children": [
        69
      ],
      "name": "Group15"
    },
    {
      "mesh": 33,
      "name": "defaultMaterial"
    },
    {
      "children": [
        71
      ],
      "name": "Group19"
    },
    {
      "mesh": 34,
      "name": "defaultMaterial"
    },
    {
      "children": [
        73
      ],
      "name": "Group30"
    },
    {
      "mesh": 35,
      "name": "defaultMaterial"
    },
    {
      "children": [
        75
      ],
      "name": "Group38"
    },
    {
      "mesh": 36,
      "name": "defaultMaterial"
    },
    {
      "children": [
        77
      ],
      "name": "Group4"
    },
    {
      "mesh": 37,
      "name": "defaultMaterial"
    },
    {
      "children": [
        79
      ],
      "name": "Group2"
    },
    {
      "mesh": 38,
      "name": "defaultMaterial"
    },
    {
      "children": [
        81
      ],
      "name": "Group18"
    },
    {
      "mesh": 39,
      "name": "defaultMaterial"
    },
    {
      "children": [
        83
      ],
      "name": "Group10"
    },
    {
      "mesh": 40,
      "name": "defaultMaterial"
    },
    {
      "children": [
        85
      ],
      "name": "Group20"
    },
    {
      "mesh": 41,
      "name": "defaultMaterial"
    },
    {
      "children": [
        87
      ],
      "name": "Group13"
    },
    {
      "mesh": 42,
      "name": "defaultMaterial"
    },
    {
      "children": [
        89
      ],
      "name": "Group3"
    },
    {
      "mesh": 43,
      "name": "defaultMaterial"
    },
    {
      "children": [
        91
      ],
      "name": "Group43"
    },
    {
      "mesh": 44,
      "name": "defaultMaterial"
    },
    {
      "children": [
        93
      ],
      "name": "Group7"
    },
    {
      "mesh": 45,
      "name": "defaultMaterial"
    },
    {
      "children": [
        95
      ],
      "name": "Group33"
    },
    {
      "mesh": 46,
      "name": "defaultMaterial"
    }
  ],
  "samplers": [
    {
      "magFilter": 9729,
      "minFilter": 9987,
      "wrapS": 10497,
      "wrapT": 10497
    }
  ],
  "scene": 0,
  "scenes": [
    {
      "name": "Sketchfab_Scene",
      "nodes": [
        0
      ]
    }
  ],
  "textures": [
    {
      "sampler": 0,
      "source": 0
    },
    {
      "sampler": 0,
      "source": 1
    },
    {
      "sampler": 0,
      "source": 2
    }
  ]
}
